<svg width="60" height="50" viewBox="0 0 60 50" fill="none" xmlns="http://www.w3.org/2000/svg">
<path d="M58.0834 17.3173H42.8323C46.43 15.2694 51.6601 12.1752 54.8638 10.1336C56.2275 9.26029 57.8551 8.26149 58.486 7.90764C59.1169 7.55379 59.7674 7.11713 59.9712 6.90883C60.2965 6.55498 57.774 7.8449 57.1628 8.3443C56.9995 8.48986 56.349 8.86504 55.7389 9.21763C55.1289 9.55015 53.7038 10.362 52.6053 11.027C51.4858 11.672 46.8068 14.0222 46.3183 14.4388C46.0127 14.7299 45.9721 14.7098 45.9721 14.376C45.9721 14.1477 45.8703 14.0636 45.6665 14.1477C45.5033 14.2104 45.2394 14.0649 45.0761 13.8152C44.7103 13.2957 44.3028 13.5027 44.4256 14.1891C44.5274 14.7299 44.5066 14.7299 42.6347 15.8328C42.1302 16.1252 40.9777 16.7262 39.8975 17.3173H34.471L29.8521 0L25.232 17.3173H20.1013C19.0211 16.7275 17.8698 16.1265 17.3641 15.8328C15.4922 14.7299 15.4713 14.7299 15.5732 14.1891C15.6947 13.5027 15.2884 13.2944 14.9214 13.8152C14.7582 14.0649 14.4943 14.2104 14.331 14.1477C14.1273 14.0649 14.0254 14.1477 14.0254 14.376C14.0254 14.7086 13.9849 14.7299 13.6793 14.4388C13.1907 14.0222 8.51048 11.672 7.39228 11.027C6.29371 10.362 4.86987 9.55015 4.2586 9.21763C3.64856 8.86378 2.99679 8.48986 2.83477 8.3443C2.22595 7.84615 -0.29645 6.55624 0.0288229 6.91009C0.232579 7.11838 0.883126 7.55504 1.51403 7.90889C2.14494 8.26274 3.77253 9.26155 5.13623 10.1349C8.33986 12.1764 13.57 15.2694 17.1677 17.3185H1.62082C0.942043 17.3185 0.393375 17.8794 0.393375 18.5733C0.393375 19.2672 0.942043 19.8281 1.62082 19.8281H27.1075L29.8521 9.53885L32.5967 19.8268H58.0834C58.7621 19.8268 59.3108 19.2659 59.3108 18.572C59.3108 17.8781 58.7621 17.3173 58.0834 17.3173ZM31.9743 30.4347C30.8758 30.3105 30.3664 29.7898 30.1835 28.604C30.0816 27.9804 29.9601 27.7934 29.6545 27.7934C29.3083 27.7934 29.2678 27.9177 29.3292 28.9792C29.3906 30.185 29.3906 30.185 30.3063 30.643C31.9338 31.4963 34.1113 31.1424 34.9251 29.8939C35.8813 28.4384 35.3326 27.0029 33.2975 25.7343C30.8561 24.1746 30.5714 23.7995 31.2219 22.8634C31.5681 22.364 32.4224 22.1356 33.0938 22.4054C33.338 22.4882 33.7247 22.9462 33.969 23.4243C34.1923 23.8823 34.4366 24.2562 34.4771 24.2562C34.5385 24.2562 34.579 23.8396 34.579 23.3201C34.579 22.5924 34.4771 22.3427 34.131 22.093C33.5209 21.6977 32.1977 21.5521 31.3631 21.7604C30.4879 21.9687 29.7551 22.6752 29.5931 23.4657C29.3488 24.5686 29.8165 25.2123 31.7092 26.4395C34.0291 27.9164 34.5176 28.9152 33.4387 30.0169C32.9919 30.4774 32.7881 30.5389 31.9743 30.4347ZM1.41216 30.8099C1.41216 30.8727 3.02011 30.9141 4.97298 30.9141H8.5338V29.7697C8.5338 28.9378 8.45279 28.6253 8.24903 28.6253C8.08578 28.6253 7.90289 28.8537 7.84152 29.1448C7.61813 30.0182 6.92585 30.3093 5.25775 30.2478L3.75167 30.185L3.6903 28.3543L3.62892 26.5449H4.97175C5.96844 26.5449 6.33544 26.6277 6.41646 26.8574C6.49747 27.0242 6.68158 27.1698 6.84361 27.1698C7.20939 27.1698 7.12837 25.2763 6.7626 25.1308C6.62021 25.0894 6.49869 25.1935 6.49869 25.3805C6.49869 25.7757 5.82728 25.9627 4.64648 25.8799L3.75167 25.8171L3.6903 24.0906L3.62892 22.3853H4.91038C6.49747 22.3853 7.14801 22.6978 7.41314 23.5912C7.69791 24.59 8.02318 24.2775 8.08455 22.9462L8.14593 21.7604H4.76922C2.91701 21.7604 1.41216 21.8232 1.41216 21.9273C1.41216 22.0101 1.61591 22.177 1.87981 22.2812C2.32783 22.4895 2.32783 22.5723 2.3892 26.3994L2.42971 30.2892L1.92032 30.4975C1.63678 30.6016 1.41216 30.7472 1.41216 30.8099ZM11.0366 24.8811C11.1998 25.048 12.4408 26.5248 13.8045 28.1674C15.1681 29.7898 16.3882 31.0797 16.4901 31.017C16.592 30.9341 16.673 29.0407 16.673 26.6277C16.673 23.029 16.7135 22.3427 16.9786 22.2598C17.6709 21.9901 17.202 21.7604 15.9611 21.7604C15.2087 21.7604 14.6391 21.8433 14.6391 21.9687C14.6391 22.0729 14.8024 22.177 15.0258 22.177C15.7586 22.177 15.8801 22.635 15.8187 25.526L15.7573 28.3129L13.133 25.0266C10.8537 22.1984 10.4265 21.7604 9.938 21.7604C9.61273 21.7604 9.3476 21.8232 9.3476 21.906C9.3476 22.0101 9.48998 22.2598 9.65323 22.4681C10.1012 23.0717 10.1012 30.2478 9.65323 30.4134C8.96095 30.6844 9.42984 30.9128 10.6708 30.9128C12.0541 30.9128 12.4408 30.6418 11.3827 30.4134L10.7727 30.3093V27.4383C10.7727 25.048 10.8132 24.6314 11.0366 24.8811ZM18.1987 30.9141H21.3115H24.4047V29.7697C24.4047 28.8964 24.3433 28.6253 24.0991 28.6253C23.9358 28.6253 23.7934 28.8123 23.7934 29.0419C23.7934 29.2716 23.6105 29.6455 23.3859 29.8739C23.0398 30.2277 22.755 30.2904 21.7988 30.2478L20.6389 30.185V26.3366C20.6389 22.5509 20.6389 22.4882 21.1065 22.2799C21.9203 21.906 21.5742 21.7604 19.927 21.7604C19.0322 21.7604 18.2994 21.8232 18.2994 21.9273C18.2994 22.0101 18.5031 22.177 18.767 22.2812C19.1942 22.4895 19.215 22.5723 19.2752 26.2337L19.3366 29.978L18.767 30.436L18.1987 30.9141ZM27.4573 22.3853L27.9655 22.177C28.2503 22.0729 28.4749 21.9273 28.4749 21.8646C28.4749 21.8018 27.7421 21.7604 26.8473 21.7604C25.9525 21.7604 25.2197 21.8433 25.2197 21.9474C25.2197 22.0515 25.4026 22.1758 25.6272 22.2385C26.0139 22.3427 26.0347 22.5296 26.0347 26.3366C26.0347 30.1436 26.0139 30.3306 25.6272 30.4347C24.7115 30.6844 25.3216 30.9128 26.8485 30.9128C27.7433 30.9128 28.4761 30.8714 28.4761 30.8087C28.4761 30.7459 28.2527 30.6004 27.9667 30.4962L27.4586 30.2879V26.3354L27.4573 22.3853ZM40.073 22.3853H40.7641C41.5779 22.3853 42.0259 22.7592 42.2088 23.6338C42.4322 24.674 42.7182 24.3415 42.7182 23.0102V21.7617H39.463H36.2078V23.0102C36.2078 24.3415 36.4926 24.674 36.716 23.6338C36.8989 22.7605 37.3469 22.3853 38.1607 22.3853H38.853V26.171C38.853 28.2715 38.7719 30.0822 38.6897 30.2064C38.6087 30.3306 38.3644 30.4975 38.1398 30.6016C37.8145 30.7685 37.8956 30.8099 38.6075 30.8727C39.0751 30.9141 39.8484 30.9141 40.3369 30.8727C41.1912 30.7898 41.1912 30.7899 40.6426 30.5401L40.073 30.2904V26.3379V22.3853ZM43.6952 30.5602C42.7796 30.8099 43.532 30.8927 46.8903 30.9341L50.3492 30.9542L50.4106 29.7898C50.4511 28.8951 50.4106 28.6253 50.1872 28.6253C50.024 28.6253 49.8214 28.8537 49.7601 29.1448C49.5367 30.0182 48.8444 30.3093 47.1763 30.2478L45.6702 30.185L45.6088 28.3543L45.5475 26.5449H46.8903C47.887 26.5449 48.254 26.6277 48.335 26.8574C48.5792 27.5023 48.8235 27.1284 48.8235 26.1296C48.8235 25.0066 48.6603 24.8397 48.254 25.506C48.0502 25.8385 47.7863 25.9225 46.7896 25.9225H45.5683V24.1546V22.3866H46.8498C48.416 22.3866 49.0678 22.699 49.312 23.5924C49.5968 24.6113 49.9429 24.2788 50.0043 22.9475L50.0657 21.7617H46.6878C44.8355 21.7617 43.3307 21.8244 43.3307 21.9286C43.3307 22.0114 43.5344 22.1783 43.7983 22.2824C44.2255 22.4907 44.2464 22.5949 44.3065 26.0267C44.3274 27.9616 44.3065 29.771 44.2451 29.9993C44.2034 30.2478 43.9395 30.4975 43.6952 30.5602ZM51.4269 30.623C51.1213 30.7271 51.7927 30.8099 53.3798 30.8513C55.5168 30.9141 55.8826 30.8727 56.6964 30.4774C58.0392 29.8111 58.6701 28.7295 58.7511 26.8373C58.853 25.132 58.5878 24.1119 57.8146 23.1758C56.8989 22.0729 55.9427 21.7617 53.3589 21.7617C52.0971 21.7617 51.0599 21.8244 51.0599 21.9286C51.0599 22.0114 51.2637 22.1783 51.5276 22.2824C51.9547 22.4907 51.9756 22.5949 52.0357 26.0267C52.0566 27.9616 52.0357 29.771 51.9744 29.9993C51.9351 30.2478 51.6712 30.5188 51.4269 30.623ZM53.2988 26.2337V22.3853H54.3973C55.2725 22.3853 55.6187 22.4895 56.1059 22.9048C57.7949 24.3603 57.8759 28.1046 56.2483 29.6656C55.6788 30.2277 54.4379 30.5389 53.7861 30.2691L53.2976 30.0822L53.2988 26.2337ZM59.3108 34.8842C59.3108 34.1903 58.7621 33.6294 58.0834 33.6294H36.4582L39.1439 39.1203L29.8521 33.4211L19.7919 39.5921L21.7362 33.6294H1.62082C0.942043 33.6294 0.393375 34.1903 0.393375 34.8842C0.393375 35.5781 0.942043 36.139 1.62082 36.139H13.0422C12.9698 36.3523 12.8348 36.6158 12.5893 37.0148C12.2431 37.6184 11.6331 38.4917 11.2256 38.9911C10.6156 39.7402 10.4118 39.8644 9.71951 39.8644C9.21135 39.8644 8.51907 40.0928 7.76665 40.5094C6.42382 41.2786 4.04257 42.8182 3.51354 43.2762C2.23209 44.3992 0.807024 45.7719 0.807024 45.9175C0.807024 46.1459 3.91983 49.9115 4.18496 49.9943C4.46973 50.0984 6.17956 48.3719 8.90572 45.2725C10.0448 43.9626 11.6527 42.1318 12.4665 41.1958C13.2595 40.281 14.277 39.0953 14.6845 38.5745C15.1117 38.055 16.3735 36.9935 17.4929 36.203C17.5261 36.1804 17.5543 36.1603 17.5862 36.1377H18.3276L15.3621 45.2324L29.8521 36.3473L45.1105 45.7054L40.4302 36.139H42.3954C42.4273 36.1616 42.4567 36.1816 42.4887 36.2042C43.6081 36.9947 44.8699 38.055 45.2971 38.5758C45.7046 39.0953 46.7209 40.281 47.515 41.197C48.3288 42.1331 49.9368 43.9638 51.0759 45.2738C53.802 48.3731 55.5119 50.0997 55.7966 49.9955C56.0618 49.9127 59.1746 46.1471 59.1746 45.9188C59.1746 45.7732 57.7507 44.4005 56.468 43.2774C55.939 42.8194 53.5578 41.2811 52.2149 40.5106C51.4625 40.0941 50.7702 39.8657 50.2621 39.8657C49.5698 39.8657 49.3673 39.7415 48.756 38.9924C48.3485 38.493 47.7384 37.6196 47.3923 37.0161C47.148 36.6171 47.0118 36.3536 46.9394 36.1402H58.0834C58.7621 36.139 59.3108 35.5781 59.3108 34.8842Z" fill="white"/>
</svg>
