<svg width="27" height="24" viewBox="0 0 27 24" fill="none" xmlns="http://www.w3.org/2000/svg">
<path d="M25.8827 0.329929C25.4327 -0.0516712 24.7259 -0.106271 23.9951 0.187129H23.9939C23.2253 0.495529 2.23729 9.49793 1.38289 9.86573C1.22749 9.91973 -0.129715 10.4261 0.0100853 11.5541C0.134885 12.5711 1.22569 12.9923 1.35889 13.0409L6.69469 14.8679C7.04869 16.0463 8.35369 20.3939 8.64229 21.3227C8.82229 21.9017 9.11569 22.6625 9.62989 22.8191C10.0811 22.9931 10.5299 22.8341 10.8203 22.6061L14.0825 19.5803L19.3487 23.6873L19.4741 23.7623C19.8317 23.9207 20.1743 23.9999 20.5013 23.9999C20.7539 23.9999 20.9963 23.9525 21.2279 23.8577C22.0169 23.5337 22.3325 22.7819 22.3655 22.6967L26.2991 2.25053C26.5391 1.15853 26.2055 0.602929 25.8827 0.329929ZM11.4005 15.5987L9.60049 20.3987L7.80049 14.3987L21.6005 4.19873L11.4005 15.5987Z" fill="#939798"/>
</svg>
