<svg width="30" height="30" viewBox="0 0 30 30" fill="none" xmlns="http://www.w3.org/2000/svg">
<path d="M26.4286 0H3.57143C1.6 0 0 1.6 0 3.57143V26.4286C0 28.4 1.6 30 3.57143 30H26.4286C28.4 30 30 28.4 30 26.4286V3.57143C30 1.6 28.4 0 26.4286 0ZM24.0857 20.7143L21.4214 20.7071C21.4214 20.7071 21.3643 20.7143 21.2714 20.7143C21.0571 20.7143 20.6143 20.6571 20.0929 20.3C19.1571 19.65 18.2643 18.0357 17.5571 18.0357C17.5071 18.0357 17.4643 18.0429 17.4214 18.0571C16.8071 18.25 16.6214 18.8643 16.6214 19.6143C16.6214 19.8786 16.4357 20 15.9357 20H14.5571C13.0143 20 11.5214 19.9643 9.84286 18.1286C7.37143 15.4214 5.05714 10.6071 5.05714 10.6071C5.05714 10.6071 4.92857 10.3286 5.06429 10.1643C5.19286 10.0143 5.49286 10 5.60714 10C5.63571 10 5.65 10 5.65 10H8.50714C8.50714 10 8.77143 10.05 8.96429 10.1929C9.12857 10.3143 9.21429 10.5357 9.21429 10.5357C9.21429 10.5357 9.7 11.4786 10.3071 12.5429C11.3286 14.3 11.8786 14.8857 12.2714 14.8857C12.3357 14.8857 12.4 14.8714 12.4643 14.8357C13.05 14.5143 12.8786 11.9143 12.8786 11.9143C12.8786 11.9143 12.8857 10.9714 12.5786 10.5571C12.3429 10.2286 11.8929 10.1357 11.6929 10.1071C11.5357 10.0857 11.7929 9.71429 12.1357 9.54286C12.5786 9.32857 13.3143 9.28571 14.2 9.28571H14.6286C15.4643 9.3 15.4857 9.38571 15.8143 9.46429C16.8 9.7 16.4643 10.6214 16.4643 12.8286C16.4643 13.5357 16.3357 14.5286 16.8429 14.8643C16.8786 14.8857 16.9286 14.9 16.9929 14.9C17.3214 14.9 18.0286 14.4786 19.1571 12.5714C19.7857 11.4857 20.2714 10.4071 20.2714 10.4071C20.2714 10.4071 20.3786 10.2143 20.5429 10.1143C20.7 10.0214 20.7 10.0214 20.9071 10.0214H20.9286C21.1571 10.0214 23.4286 10 23.9286 10H23.9857C24.4643 10 24.9 10.0071 24.9786 10.3C25.0929 10.7429 24.6286 11.5357 23.4071 13.1786C21.3929 15.8714 21.1643 15.6714 22.8357 17.2286C24.4357 18.7143 24.7643 19.4357 24.8214 19.5286C25.4857 20.6286 24.0857 20.7143 24.0857 20.7143Z" fill="#939798"/>
</svg>
