<svg width="27" height="20" viewBox="0 0 27 20" fill="none" xmlns="http://www.w3.org/2000/svg">
<path d="M25.9391 3.6999C25.7 2.38037 24.5609 1.41943 23.2391 1.11943C21.2609 0.699902 17.6 0.399902 13.6391 0.399902C9.68047 0.399902 5.96094 0.699902 3.98047 1.11943C2.66094 1.41943 1.51953 2.31943 1.28047 3.6999C1.03907 5.1999 0.800003 7.2999 0.800003 9.9999C0.800003 12.6999 1.03907 14.7999 1.33907 16.2999C1.58047 17.6194 2.71953 18.5804 4.03907 18.8804C6.13907 19.2999 9.73907 19.5999 13.7 19.5999C17.6609 19.5999 21.2609 19.2999 23.3609 18.8804C24.6805 18.5804 25.8195 17.6804 26.0609 16.2999C26.3 14.7999 26.6 12.639 26.6609 9.9999C26.5391 7.2999 26.2391 5.1999 25.9391 3.6999ZM10.4 14.1999V5.7999L17.7195 9.9999L10.4 14.1999Z" fill="#939798"/>
</svg>
